<svg xmlns="http://www.w3.org/2000/svg" viewBox="0 0 665.19684 283.46457">
  <!-- Extended baseline left (+120 units) and right (+120 units) around original waveform -->
  <path d="M 0,212.91825 L 120,212.91825 L 127.994723,212.91825 L 170.295515,212.96707 C 170.845515,212.56298 173.366592,209.70567 174.432211,207.61251 C 176.856071,202.85141 187.517198,192.00825 190.761002,190.44424 C 193.077648,189.32726 196.961291,190.229 199.110464,191.3083 C 203.295033,193.40975 211.684885,201.48277 216.711179,208.07369 L 221.6534,212.96707 L 242.07837,212.91825 L 244.8981,219.16825 C 252.38138,235.75509 253.17959,236.81027 255.82894,233.618 C 256.77263,232.48092 260.99472,136.34104 260.99472,115.98961 C 260.99472,99.631005 262.17373,115.52793 265.47388,176.38366 C 267.70186,217.46813 269.45992,242.77385 270.14341,243.59741 C 270.74632,244.32387 271.81084,244.91825 272.509,244.91825 C 273.20717,244.91825 277.61499,237.07638 282.30415,227.49188 L 290.82991,210.06551 L 295.16232,209.50926 C 299.09064,209.00489 333.09981,206.18407 334.7929,206.19593 C 335.1842,206.19867 337.39478,204.14626 337.97796,201.98049 C 340.16036,193.87568 352.73129,181.80678 364.99472,176.04268 C 369.75712,173.80423 372.12563,173.40792 382.6558,173.08752 C 402.32457,172.48905 411.59185,175.356 422.92465,185.54516 C 428.83349,190.85772 437.35747,203.28768 438.56003,205.71063 C 440.98729,210.60115 443.88177,210.44532 447.73276,210.63559 C 452.44569,210.86845 457.55213,208.80775 460.72341,207.33241 C 463.14974,206.20363 472.82566,201.84404 478.06891,201.22306 C 483.54219,200.57483 488.4693,201.66908 498.67185,208.45172 L 505.46389,212.96707 L 534.69492,212.96707 L 545.19684,212.96707 L 665.19684,212.91825" fill="none" stroke="#00ff00" stroke-width="4.25" stroke-linecap="round" stroke-linejoin="round" />
</svg>
